<?xml version="1.0" encoding="UTF-8"?>
<svg id="Calque_1" xmlns="http://www.w3.org/2000/svg" version="1.1" viewBox="0 0 203.43 86.55">
  <!-- Generator: Adobe Illustrator 30.1.0, SVG Export Plug-In . SVG Version: 2.1.1 Build 136)  -->
  <defs>
    <style>
      .st0 {
        fill: #00b8c0;
      }

      .st1 {
        fill: #003959;
      }
    </style>
  </defs>
  <path class="st0" d="M32.83,55.46l17.31-10.18c1.08-.63,2.06-.81,3.16-.15,1.28.77,3.78,1.73,3.83,3.01.02.47-.24,1.28-.82,1.63l-25.1,15.09c-1.23.74-2.32.97-3.63.21l-16.38-9.46-8.71-4.97c-1.58-.9-2.22-2.09-2.21-3.91l.1-29.23c0-1.06.91-2.03,1.81-2.55L27.28.55c1.31-.75,2.62-.72,3.88,0l25.02,14.29c.59.34,1,.87,1.06,1.35.07.54-.16,1.26-.7,1.58l-3.56,2.16c-.8.49-1.62.59-2.48.1l-20.51-11.56c-.81-.46-1.34-.37-2.11.07l-18.57,10.68c-.64.37-1.57.89-1.77,1.63l.02,23.49c0,.81,1.19,1.31,1.76,1.64l19.7,11.32c1.42-.37,2.53-1.09,3.81-1.84Z"/>
  <path class="st0" d="M24.33,38.81c2.03,1.07,4.16,2.84,5.61,2.02l7.21-4.05c.99-.56,2.1.11,2.94.67.94.62,2.09.92,2.76,1.82.71.95-.06,1.98-.97,2.5l-11.99,6.93c-1.01.58-2.38-.39-3.24-.88l-10.88-6.19c-.84-.48-1.32-1.36-1.32-2.32v-13.2c.01-1.16.72-1.95,1.68-2.51l12.05-7.05c.96-.56,2.15.17,2.95.63l11.14,6.32c.45.26.76.7.79,1.07.05.5-.1,1.12-.59,1.46-1.2.84-2.47,1.53-3.73,2.25-.85.49-1.65.16-2.42-.28l-6.45-3.66c-.71-.4-1.53-.11-2.17.27l-5.73,3.43c-.53.31-.81,1.03-.8,1.64l.07,7.2c1.03.7,2.02,1.35,3.09,1.91Z"/>
  <path class="st1" d="M128.76,26.35c-.15,6.96-5.52,10.26-11.79,10.3l-5.99.03-.03,10.75c-2.02.03-3.88.12-5.8-.05V15.55s12.53,0,12.53,0c1.74,0,3.44.44,4.95,1.07,4.08,1.64,6.23,5.43,6.13,9.74ZM122.75,25.79c-.43-6.51-7.49-4.69-11.77-4.97v10.62c2.36.03,4.64.09,6.93-.01,3.09-.14,5.04-2.56,4.84-5.64Z"/>
  <path class="st1" d="M81.08,40.05c4.64,4.14,11.47,3.08,15.54-1.37,1.37,1.21,2.78,2.3,4.01,3.64-4.21,4.79-10.6,6.55-16.69,5.29-7.8-1.62-12.66-8.38-12.61-16.2.05-8.5,5.99-15.46,14.6-16.18,5.17-.43,10.52.92,14.3,4.97-1.23,1.52-2.56,2.78-4.09,4.14-4.08-4.95-11.62-4.91-15.78-.48s-4.09,11.89.73,16.19Z"/>
  <path class="st1" d="M147.43,47.36c-5.43,1.13-10.86-.23-15.09-3.62l2.99-4.45c2.53,1.71,5.15,3.24,8.24,3.43,2.34.14,4.72-.67,5.66-2.85s-.4-4.23-2.88-5.03l-7.09-2.28c-2.16-.69-4.12-1.95-5.25-4.04-1.73-3.22-1.31-7.51,1.37-10.2s6.48-3.75,10.01-3.37c3.28.36,6.24,1.33,8.89,3.18-.86,1.65-1.76,2.93-2.72,4.35-2.96-1.88-7.39-3.29-10.58-1.66-1.15.59-1.97,1.65-2.02,2.78-.06,1.28.54,2.44,1.62,3.19,3.51,2.44,13.26,2.16,14.51,9.63.88,5.26-2.36,9.84-7.65,10.94Z"/>
  <path class="st1" d="M177.96,39.5c3.27,2,6.97,3.88,10.79,2.54,2.34-.82,3.75-3.02,3.43-5.44-.31-2.29-2.15-4-4.63-4.36-1.92-.28-3.78.07-5.76.26l-.07-3.38,7.56-8.2-12.76-.09v-5.21s20.45,0,20.45,0l.07,4.23-7.4,8.29c4.89.53,8.24,4.29,8.27,9.03.03,4.27-2.3,7.95-6.34,9.55-5.56,2.19-11.83.93-16.53-2.82l2.93-4.39Z"/>
  <path class="st1" d="M164.23,47.31l-.03-24.37-5.69,3.32v-5.48s8.37-5.15,8.37-5.15c.96-.16,2.05.02,3,.06v31.59s-5.65.04-5.65.04Z"/>
  <path class="st1" d="M53.55,82.88c-.53.13-1.03.07-1.58.02l-.11-4.66c-.02-.83-.81-1.44-1.5-1.41-2.53.11-1.18,3.92-1.62,5.92-.37.34-1.18.18-1.67.05l-.09-6.05c0-.38-.06-.89.16-1.05.3-.21.73-.14,1.08-.12.43.02.25.49.44,1.04.64-.84,1.36-1.12,2.19-1.28.97-.19,1.68.54,2.36,1.13.76-.59,1.68-1.36,2.88-1.07,3.47.82,2.06,4.11,2.36,7.43-.56.18-1.06.14-1.64.03l-.1-4.6c-.02-.86-1.08-1.41-1.76-1.39-.91.02-1.38.92-1.39,1.81l-.02,4.21Z"/>
  <path class="st1" d="M93.52,82.01c-.96,1.08-2.1,1.22-3.26.94s-2.01-1.16-2.5-2.38c-.69-1.75.29-4.28,2.03-4.94,1.42-.54,2.73-.31,3.85.69l.07-4.63c.25-.34,1.07-.2,1.54-.07v11.24c-.53.12-.98.1-1.47,0-.14-.28.03-.54-.27-.85ZM93.69,79.03c-.06-1.38-1.05-2.36-2.22-2.23s-2.12,1.07-2.13,2.34c-.02,1.45.97,2.46,2.31,2.44,1.24-.02,2.1-1.06,2.04-2.55Z"/>
  <path class="st1" d="M112.21,78.67l-.06,4.14c-.52.22-1.15.11-1.81.02l-.03-10.83c1.76,0,3.46-.16,5.18.07s2.53,1.65,2.56,3.13c.04,1.61-.98,2.89-2.68,3.33-.94.25-1.9,0-3.16.14ZM114.88,76.97c.92-.2,1.36-1.04,1.35-1.77s-.45-1.53-1.25-1.73c-.92-.22-1.83-.23-2.79-.08v3.6c.88.11,1.73.18,2.69-.03Z"/>
  <path class="st1" d="M62.22,86.32c-.16.37-1.25.23-1.6.02v-10.73c.59-.08.86-.09,1.27-.07.26.01.4.4.5.73,1.3-1.01,2.91-1.18,4.23-.39,1.17.7,1.86,2.14,1.72,3.66-.13,1.41-.81,2.59-1.94,3.13-1.33.64-2.74.54-4.04-.51l-.13,4.16ZM66.63,79.27c.02-1.53-1.27-2.64-2.51-2.46-1.34.2-2.08,1.42-1.86,2.76s1.04,2.11,2.27,2.05c1.09-.06,2.08-.91,2.1-2.34Z"/>
  <path class="st1" d="M151.69,82.58c-1.82.83-4.27.67-5.57-.88-.28-.34.77-1.37,1.22-1.03.96.73,2,1.25,3.14.82.62-.23,1-.76,1.07-1.27.34-2.66-4.92-1.6-5.27-5.04-.12-1.18.32-2.35,1.44-2.92,1.75-.89,3.94-.6,5.38.66-.25.47-.59.73-.95,1.06-1.04-.46-2.4-1.35-3.44-.38-.45.42-.9,1.18-.39,1.82,1.14,1.43,4.81,1.39,5.07,3.91.14,1.32-.33,2.63-1.71,3.26Z"/>
  <path class="st1" d="M34.96,80.81c.43-.06,1.07.63,1.19,1.07-1.99,1.62-5.01,1.73-7.14.28-1.6-1.09-2.31-2.96-2.27-4.8s.91-3.65,2.62-4.68c2.12-1.28,4.86-1.07,6.8.38-.27.52-.71.89-1.2,1.18-1.25-.94-2.7-1.14-4.11-.5-1.21.54-2.01,1.75-2.2,3.28-.2,1.62.49,3.09,1.7,3.92,1.43.99,3.1.88,4.6-.13Z"/>
  <path class="st1" d="M156.05,82.83c-1.04-.46-1.24-1.78-1.02-2.72.43-1.8,3.47-2.31,4.87-1.38.06-.72-.09-1.48-.66-1.8-1.96-1.12-3.38,1.56-3.82-.65,1.34-1.06,3.42-1.21,4.97-.49.73.34,1.08.95,1.08,1.72l-.05,5.24c-.25.21-.73.15-1.08.14-.23,0-.35-.34-.58-.6-1.04.78-2.38,1.1-3.72.52ZM159.7,79.88c-.86-.63-2.04-.7-2.84.07-.38.36-.28.97-.11,1.29.4.76,1.91.86,2.59.07.32-.38.52-.83.37-1.43Z"/>
  <path class="st1" d="M120.41,82.94c-1.46-.43-1.82-2.56-.87-3.59,1.15-1.24,2.79-1.35,4.26-.66.32-.32.19-.75.02-1.21-.43-1.21-2.63-.76-3.7-.27-.3-.08-.64-.73-.57-1.05,1.46-1.01,3.6-1.17,5.21-.2,1.38.82.77,5.08.74,6.79-.19.46-1.6.2-1.69-.38-.94.78-2.06.97-3.41.58ZM123.78,79.99c-.35-.78-1.49-.57-2.03-.44-.8.2-1.09.74-1,1.4.09.61.56.86,1.3.9.91.05,2.2-.82,1.73-1.86Z"/>
  <path class="st1" d="M37.6,80.47c-.57-1.94.21-3.97,1.91-4.74,2.12-.96,4.43-.09,5.32,1.93.84,1.91.03,4.35-1.99,5.14s-4.54.04-5.24-2.33ZM41.91,81.51c1.25-.33,1.67-1.62,1.54-2.6s-.99-2.01-2.14-2.07c-1.46-.08-2.32,1.38-2.2,2.69.11,1.21,1.34,2.37,2.81,1.98Z"/>
  <path class="st1" d="M172.84,82.74c-2.22.95-4.58-.1-5.33-2.11s.21-4.41,2.39-5.11c1.97-.63,4,.37,4.78,2.14s.18,4.21-1.85,5.07ZM171.51,81.54c1.32-.19,1.89-1.37,1.83-2.43s-.75-2.11-1.97-2.24c-1.41-.14-2.47,1.18-2.42,2.41.06,1.3,1.02,2.47,2.56,2.25Z"/>
  <path class="st1" d="M10.06,81.31c1,.63,2.29.26,3.27-.18.36-.16,1.15.65.92.92-1.11,1.27-3.16,1.42-4.63.72-1.57-.75-2.2-2.33-2.04-3.96.14-1.5,1.15-2.92,2.82-3.24,1.25-.23,2.49,0,3.36.82s1.17,2.13.9,3.41l-5.48.07c.25.43.39,1.13.88,1.44ZM13.12,78.49c-.31-1.4-1.33-1.87-2.27-1.67-.85.18-1.59.85-1.65,1.86,1.37-.12,2.62.16,3.92-.19Z"/>
  <path class="st1" d="M78.7,83.14c-1.67.2-2.83-.53-3.01-1.94s.63-2.46,2.13-2.75c.9-.18,1.77-.23,2.69.3.37-.56.03-.97-.09-1.28-.49-1.24-2.77-.73-3.71-.07l-.63-1.08c1.57-1.32,5.99-1.43,6.01.93.02,1.96.09,3.82-.06,5.64-.52.05-.82.1-1.14,0-.25-.08-.08-.5-.28-.9-.5.63-1.02,1.04-1.93,1.15ZM80.46,79.82c-.96-.6-2.03-.58-2.82.1-.4.35-.32.98-.12,1.33.45.79,1.95.78,2.61.05.33-.37.57-.83.33-1.48Z"/>
  <path class="st1" d="M186.4,82.74c-1.34-.77-1.38-2.83-.23-3.7s2.59-.85,4.1-.41c.19-.56-.05-1.37-.56-1.66-.93-.53-1.99-.16-2.91.25-.48.22-1.17-.78-.84-1.01,1.29-.9,2.99-1.04,4.41-.6.89.28,1.5.91,1.48,1.87-.03,1.76.19,3.48-.1,5.27-.08.46-1.57.19-1.54-.52-1.1.88-2.44,1.29-3.8.5ZM190.05,79.91c-.45-.72-1.31-.5-1.89-.37-.7.16-1.13.56-1.11,1.19.01.54.41.92,1.03,1.07s1.18.05,1.6-.37c.28-.27.74-.95.38-1.52Z"/>
  <path class="st1" d="M134.45,75.66l-4.58,10.66c-.29.4-1.37.15-1.77.06l1.73-4.07-3.04-6.62c.36-.17,1.41-.31,1.74.03l2.24,4.66,2.01-4.67c.28-.34,1.19-.16,1.67-.05Z"/>
  <path class="st1" d="M180.41,76.84c-2.5-.34-1.52,4.67-1.74,5.97-.49.17-1.04.12-1.6.08l-.03-7.25c.46-.1.89-.15,1.36.05.29.12-.15.57.18.97.74-.93,1.62-1.46,2.82-1.3,3.24.44,1.87,4.89,2.15,7.46-.58.15-1.08.19-1.62.03l-.04-4.42c0-.83-.69-1.46-1.48-1.57Z"/>
  <path class="st1" d="M6.53,81.49c.37.16.19,1.13.08,1.56H0s.02-10.72.02-10.72c.55-.2,1.11-.2,1.75-.05l.05,9.11,4.71.09Z"/>
  <path class="st1" d="M104.25,75.6v7.17c-.51.21-1.04.17-1.58.12-.13-.37,0-.67-.24-.86-.85,1.02-2.05,1.24-3.26.88-.86-.26-1.62-1.41-1.62-2.54v-4.72c.59-.11,1.07-.14,1.63-.04l.09,4.71c.02.85.8,1.28,1.49,1.27,2.68-.01,1.49-4.2,1.82-5.94.54-.15,1.03-.15,1.65-.05Z"/>
  <path class="st1" d="M140.48,82.28c-1.33,1.21-3.79,1.09-5.1-.11-.31-.29.37-1.2.69-1.12.69.32,1.54.89,2.4.7.49-.11.79-.37.82-.82.08-1.17-2.54-.84-3.59-2.47-.41-.64-.21-1.49.18-2.11.96-1.5,3.94-1.23,4.8-.17.22.27-.5,1.07-.81.94-.78-.33-2.39-.88-2.6.24-.05.29.11.63.44.77l2.2.94c.58.25,1.03.8,1.11,1.36.06.47.04,1.33-.53,1.86Z"/>
  <path class="st1" d="M202.69,82.43c-1.49,1.09-3.64.79-4.94-.23-.14-.38.4-1.15.76-1.16.78.42,2.51,1.3,3.06.26.12-.23.22-.77-.13-.93l-2.51-1.14c-.67-.3-.97-1.01-.96-1.64.01-.68.23-1.33.9-1.74,1.26-.78,3.07-.65,4.25.27.12.32-.49,1.13-.85,1.02-.76-.24-1.35-.68-2.12-.33-.33.15-.51.44-.46.77.11.79,1.86.69,3.19,1.89.76.69.81,2.24-.17,2.96Z"/>
  <path class="st1" d="M20.77,82.67c-1.53.82-3.56.6-4.84-.37-.14-.35.35-1.11.73-1.17.96.69,3.06,1.17,3.17.04.12-1.22-2.05-.94-3.22-2.23-.78-.86-.52-2.53.55-3.05,1.4-.68,3.01-.44,4.27.38-.16.41-.52,1-.9.99-.75-.33-2.33-.93-2.65.13-.1.33.04.72.43.88l2.03.84c.67.28,1.2.85,1.25,1.44.07.74,0,1.67-.82,2.11Z"/>
  <path class="st1" d="M72.34,80.83c.01,1.96,2.55-.39,1.87,1.82-.11.36-.77.42-1.14.44-1.2.06-2.3-.47-2.4-1.76-.11-1.42.11-2.81-.1-4.2l-1.34-.13c-.12-.45-.06-.87-.07-1.3.45-.17.89-.09,1.44-.18l.08-2.51c.55-.14,1.05-.16,1.63-.02l.06,2.57c.69.03,1.22-.05,1.91.1.06.39.02.81.04,1.23-.64.27-1.23.09-2,.13l.02,3.82Z"/>
  <path class="st1" d="M165.34,82.79c-.61.24-1.13.11-1.67.08v-11.31c.53-.13,1.08-.12,1.62.06l.04,11.17Z"/>
  <path class="st1" d="M195.73,82.77c-.39.3-1.1.15-1.6.06l-.03-7.16c.6-.17,1.1-.17,1.73.05.12,2.3.26,4.7-.1,7.05Z"/>
  <path class="st1" d="M194.58,71.79c.46-.14,1.17.22,1.31.6.19.51-.05,1.23-.66,1.45-.45.16-1.13-.12-1.36-.65-.2-.45.1-1.21.71-1.4Z"/>
</svg>